With: Johnny Depp, Penélope Cruz and Ian McShane

Kapitein Jack Sparrow (Johnny Depp) kruist wegen met een mysterieuze vrouw (Penélope Cruz) die hij ooit eerder heeft ontmoet. Hij valt als een blok voor haar, maar al snel blijkt dat haar bedoelingen niet zuiver zijn. Ze dwingt Jack aan boord te gaan van het schip van piraat Blackbeard (Ian McShane) om de geheimzinnige 'Fontein van de Eeuwige Jeugd' te vinden. Een onverwacht avontuur begint waarvan Jack er niet over uit is welke hoofdrolspeler daarin hij meer moet vrezen: Blackbeard of de mysterieuze vrouw van het verleden.

Jack Sparrow and Barbossa embark on a quest to find the elusive fountain of youth, only to discover that Blackbeard and his daughter are after it too. 

------------------ Dutch Friends ------------------
You can find my Friends at: http://www.Film-Test.nl 
------ They got my dutchs subs ---- and more ------

General:

Complete name                    : Pirates of the Caribbean\On Stranger Tides.avi
Format                           : AVI
Format/Info                      : Audio Video Interleave
File size                        : 1.92 GiB
Duration                         : 2h 15mn
Overall bit rate                 : 2 031 Kbps

Video:

Format                           : MPEG-4 Visual
Format profile                   : Simple@L3
Format settings, BVOP            : No
Format settings, QPel            : No
Format settings, GMC             : No warppoints
Format settings, Matrix          : Default (H.263)
Codec ID                         : XVID
Codec ID/Hint                    : XviD
Duration                         : 2h 15mn
Bit rate                         : 1 636 Kbps
Width                            : 720 pixels
Height                           : 304 pixels
Display aspect ratio             : 2.35:1
Frame rate                       : 23.976 fps
Color space                      : YUV
Chroma subsampling               : 4:2:0
Bit depth                        : 8 bits
Scan type                        : Progressive
Bits/(Pixel*Frame)               : 0.312
Stream size                      : 1.55 GiB (81%)
Writing library                  : XviD 1.1.2 (UTC 2006-11-01)

Audio:

Format                           : AC-3
Format/Info                      : Audio Coding 3
Mode extension                   : CM (complete main)
Codec ID                         : 2000
Duration                         : 2h 15mn
Bit rate mode                    : Constant
Bit rate                         : 384 Kbps
Channel(s)                       : 6 channels
Channel positions                : Front: L C R, Side: L R, LFE
Sampling rate                    : 48.0 KHz
Bit depth                        : 16 bits
Stream size                      : 372 MiB (19%)
Alignment                        : Aligned on interleaves
Interleave, duration             : 32 ms (0.77 video frame)
Interleave, preload duration     : 896 ms

